<?xml version="1.0" standalone="no"?>
<!DOCTYPE svg PUBLIC "-//W3C//DTD SVG 20010904//EN"
 "http://www.w3.org/TR/2001/REC-SVG-20010904/DTD/svg10.dtd">
<svg version="1.0" xmlns="http://www.w3.org/2000/svg"
 width="512.000000pt" height="512.000000pt" viewBox="0 0 512.000000 512.000000"
 preserveAspectRatio="xMidYMid meet">

<g transform="translate(0.000000,512.000000) scale(0.100000,-0.100000)"
fill="#000000" stroke="none">
<path d="M199 5091 c-25 -26 -29 -37 -29 -85 l0 -56 -56 0 c-48 0 -59 -4 -85
-29 -31 -31 -36 -59 -17 -94 19 -37 40 -46 101 -47 l57 0 0 -169 0 -169 -62
-4 c-51 -4 -65 -9 -85 -32 -30 -36 -30 -80 2 -111 20 -21 34 -25 85 -25 l60 0
0 -170 0 -170 -42 0 c-56 0 -110 -28 -122 -62 -22 -63 34 -118 122 -118 l42 0
0 -170 0 -170 -60 0 c-51 0 -65 -4 -85 -25 -32 -31 -32 -75 -2 -111 20 -23 34
-28 85 -32 l62 -4 0 -169 0 -169 -57 0 c-61 -1 -82 -10 -101 -47 -19 -35 -14
-63 17 -94 26 -25 37 -29 85 -29 l56 0 0 -170 0 -170 -56 0 c-48 0 -59 -4 -85
-29 -31 -31 -36 -59 -17 -94 19 -37 40 -46 101 -47 l57 0 0 -169 0 -169 -62
-4 c-51 -4 -65 -9 -85 -32 -30 -36 -30 -80 2 -111 20 -21 34 -25 85 -25 l60 0
0 -170 0 -170 -42 0 c-56 0 -110 -28 -122 -62 -22 -63 34 -118 122 -118 l42 0
0 -170 0 -170 -60 0 c-51 0 -65 -4 -85 -25 -32 -31 -32 -75 -2 -111 20 -23 34
-28 85 -32 l62 -4 0 -169 0 -169 -57 0 c-61 -1 -82 -10 -101 -47 -19 -35 -14
-63 17 -94 26 -25 37 -29 85 -29 l56 0 0 -56 c0 -48 4 -59 29 -85 31 -31 59
-36 94 -17 37 19 46 40 47 101 l0 57 169 0 169 0 4 -62 c4 -51 9 -65 32 -85
36 -30 80 -30 111 2 21 20 25 34 25 85 l0 60 170 0 170 0 0 -42 c0 -56 28
-110 62 -122 63 -22 118 34 118 122 l0 42 170 0 170 0 0 -60 c0 -51 4 -65 25
-85 31 -32 75 -32 111 -2 23 20 28 34 32 85 l4 62 169 0 169 0 0 -57 c1 -61
10 -82 47 -101 35 -19 63 -14 94 17 25 26 29 37 29 85 l0 56 170 0 170 0 0
-56 c0 -48 4 -59 29 -85 31 -31 59 -36 94 -17 37 19 46 40 47 101 l0 57 169 0
169 0 4 -62 c4 -51 9 -65 32 -85 36 -30 80 -30 111 2 21 20 25 34 25 85 l0 60
170 0 170 0 0 -42 c0 -56 28 -110 63 -122 62 -22 117 34 117 122 l0 42 170 0
170 0 0 -60 c0 -51 4 -65 25 -85 31 -32 75 -32 111 -2 23 20 28 34 32 85 l4
62 169 0 169 0 0 -57 c1 -61 10 -82 47 -101 35 -19 63 -14 94 17 25 26 29 37
29 85 l0 56 56 0 c48 0 59 4 85 29 31 31 36 59 17 94 -24 47 -22 46 -440 47
l-398 0 0 475 c0 540 2 526 -73 546 -23 6 -81 9 -129 7 -75 -4 -91 -8 -113
-28 l-25 -23 -2 -486 -3 -486 -342 -3 -343 -2 0 1170 0 1171 -25 24 c-23 24
-30 25 -140 25 -115 0 -117 0 -146 -29 l-29 -29 0 -1166 0 -1166 -340 0 -340
0 -2 1300 -3 1299 -23 23 c-21 21 -31 23 -141 23 -113 0 -121 -1 -145 -24
l-26 -24 0 -1299 0 -1298 -342 2 -343 3 -5 1088 -5 1089 -24 19 c-20 16 -40
19 -137 19 -105 0 -115 -2 -141 -24 l-28 -24 -3 -1086 -2 -1086 -255 0 -255 0
0 2363 c-1 1841 -3 2366 -13 2378 -35 46 -88 50 -128 10z"/>
<path d="M2650 4209 c-19 -11 -106 -91 -192 -177 l-158 -157 -82 82 c-46 45
-96 87 -111 92 -41 16 -93 13 -130 -5 -18 -9 -182 -165 -364 -347 l-333 -331
-123 121 c-67 67 -135 127 -150 132 -40 15 -113 14 -145 -3 -15 -8 -99 -87
-187 -175 -147 -149 -159 -163 -159 -197 0 -46 40 -84 86 -84 27 0 53 21 185
152 l153 152 123 -121 c67 -66 133 -126 146 -133 33 -17 112 -15 147 3 16 9
177 164 359 346 l329 330 82 -79 c44 -44 94 -84 110 -90 39 -16 107 -15 137 2
14 7 101 87 193 177 l167 163 1043 -1043 c574 -574 1044 -1047 1044 -1051 0
-5 -17 -8 -38 -8 -75 0 -116 -91 -64 -143 21 -21 33 -22 182 -25 l160 -3 30
30 30 29 0 157 0 157 -29 29 c-18 17 -40 29 -56 29 -41 0 -85 -50 -85 -97 0
-38 -9 -29 -1057 1019 -582 581 -1072 1063 -1090 1072 -45 22 -111 20 -153 -5z"/>
</g>
</svg>
