<?xml version="1.0" standalone="no"?>
<!DOCTYPE svg PUBLIC "-//W3C//DTD SVG 20010904//EN"
 "http://www.w3.org/TR/2001/REC-SVG-20010904/DTD/svg10.dtd">
<svg version="1.0" xmlns="http://www.w3.org/2000/svg"
 width="512.000000pt" height="512.000000pt" viewBox="0 0 512.000000 512.000000"
 preserveAspectRatio="xMidYMid meet">

<g transform="translate(0.000000,512.000000) scale(0.100000,-0.100000)"
fill="#000000" stroke="none">
<path d="M3093 4898 c-22 -11 -1766 -2458 -1777 -2495 -6 -17 11 -70 27 -85 1
-1 180 -5 399 -8 l396 -5 -304 -994 c-167 -547 -304 -1005 -304 -1018 0 -58
56 -96 106 -71 18 8 398 510 1091 1438 586 784 1069 1436 1074 1449 12 31 -5
77 -35 93 -14 8 -171 13 -503 17 -265 3 -484 9 -488 13 -4 3 93 364 214 801
228 820 228 822 189 854 -21 18 -61 23 -85 11z"/>
</g>
</svg>
